HIERARCHY
ROOT Hips
{
	OFFSET 0.000000 0.000000 0.000000
	CHANNELS 6 Xposition Yposition Zposition Xrotation Yrotation Zrotation
	JOINT LeftUpLeg_virtual
	{
		OFFSET 0.000000 0.000000 0.000000
		CHANNELS 3 Xrotation Yrotation Zrotation
		JOINT LeftUpLeg
		{
			OFFSET 13.026900 -6.336304 -1.092800
			CHANNELS 3 Xrotation Yrotation Zrotation
			JOINT LeftLeg
			{
				OFFSET 0.524474 -46.096886 9.782700
				CHANNELS 3 Xrotation Yrotation Zrotation
				JOINT LeftFoot
				{
					OFFSET -0.524474 -53.427422 -12.948200
					CHANNELS 3 Xrotation Yrotation Zrotation
					JOINT LeftToeBase
					{
						OFFSET 0.192200 -14.009700 16.364100
						CHANNELS 3 Xrotation Yrotation Zrotation
						JOINT LeftToe_End
						{
							OFFSET -1.784700 -0.561700 9.474800
							CHANNELS 3 Xrotation Yrotation Zrotation
							End Site
							{
								OFFSET 0 0 0
							}
						}
					}
				}
			}
		}
	}
	JOINT RightUpLeg_virtual
	{
		OFFSET 0.000000 0.000000 0.000000
		CHANNELS 3 Xrotation Yrotation Zrotation
		JOINT RightUpLeg
		{
			OFFSET -12.883000 -6.336304 -1.092800
			CHANNELS 3 Xrotation Yrotation Zrotation
			JOINT RightLeg
			{
				OFFSET -0.524587 -46.096825 9.782800
				CHANNELS 3 Xrotation Yrotation Zrotation
				JOINT RightFoot
				{
					OFFSET 0.524587 -53.427383 -12.948300
					CHANNELS 3 Xrotation Yrotation Zrotation
					JOINT RightToeBase
					{
						OFFSET -0.192200 -14.009700 16.364100
						CHANNELS 3 Xrotation Yrotation Zrotation
						JOINT RightToe_End
						{
							OFFSET 1.784700 -0.561700 9.474800
							CHANNELS 3 Xrotation Yrotation Zrotation
							End Site
							{
								OFFSET 0 0 0
							}
						}
					}
				}
			}
		}
	}
	JOINT Spine_virtual
	{
		OFFSET 0.000000 0.000000 0.000000
		CHANNELS 3 Xrotation Yrotation Zrotation
		JOINT Spine
		{
			OFFSET 0.072000 7.257294 -0.789700
			CHANNELS 3 Xrotation Yrotation Zrotation
			JOINT Spine1
			{
				OFFSET 0.000000 12.508769 -0.658067
				CHANNELS 3 Xrotation Yrotation Zrotation
				JOINT Spine1_split
				{
					OFFSET 0.000000 12.508769 -0.658067
					CHANNELS 3 Xrotation Yrotation Zrotation
					JOINT Spine2
					{
						OFFSET 0.000000 12.508769 -0.658067
						CHANNELS 3 Xrotation Yrotation Zrotation
						JOINT Neck_virtual
						{
							OFFSET 0.000000 0.000000 0.000000
							CHANNELS 3 Xrotation Yrotation Zrotation
							JOINT Neck
							{
								OFFSET 0.000000 14.033295 7.520400
								CHANNELS 3 Xrotation Yrotation Zrotation
								JOINT Head
								{
									OFFSET 0.000000 8.198502 5.703100
									CHANNELS 3 Xrotation Yrotation Zrotation
									JOINT HeadTop_End
									{
										OFFSET 0.000000 17.760803 13.332701
										CHANNELS 3 Xrotation Yrotation Zrotation
										End Site
										{
											OFFSET 0 0 0
										}
									}
								}
							}
						}
						JOINT LeftShoulder_virtual
						{
							OFFSET 0.000000 0.000000 0.000000
							CHANNELS 3 Xrotation Yrotation Zrotation
							JOINT LeftShoulder
							{
								OFFSET 6.292450 5.785301 -0.669000
								CHANNELS 3 Xrotation Yrotation Zrotation
								JOINT LeftShoulder_split
								{
									OFFSET 6.292450 5.785301 -0.669000
									CHANNELS 3 Xrotation Yrotation Zrotation
									JOINT LeftArm
									{
										OFFSET 13.907140 -6.093903 1.965100
										CHANNELS 3 Xrotation Yrotation Zrotation
										JOINT LeftForeArm
										{
											OFFSET 34.140198 0.000000 0.000000
											CHANNELS 3 Xrotation Yrotation Zrotation
											JOINT LeftHand
											{
												OFFSET 40.960209 0.000000 0.000000
												CHANNELS 3 Xrotation Yrotation Zrotation
												End Site
												{
													OFFSET 0 0 0
												}
											}
										}
									}
								}
							}
						}
						JOINT RightShoulder_virtual
						{
							OFFSET 0.000000 0.000000 0.000000
							CHANNELS 3 Xrotation Yrotation Zrotation
							JOINT RightShoulder
							{
								OFFSET -6.292450 5.785301 -0.669000
								CHANNELS 3 Xrotation Yrotation Zrotation
								JOINT RightShoulder_split
								{
									OFFSET -6.292450 5.785301 -0.669000
									CHANNELS 3 Xrotation Yrotation Zrotation
									JOINT RightArm
									{
										OFFSET -13.907140 -6.093903 1.965100
										CHANNELS 3 Xrotation Yrotation Zrotation
										JOINT RightForeArm
										{
											OFFSET -34.140198 0.000000 0.000000
											CHANNELS 3 Xrotation Yrotation Zrotation
											JOINT RightHand
											{
												OFFSET -40.960209 0.000000 0.000000
												CHANNELS 3 Xrotation Yrotation Zrotation
												End Site
												{
													OFFSET 0 0 0
												}
											}
										}
									}
								}
							}
						}
					}
				}
			}
		}
	}
}
MOTION
Frames: 10
Frame Time: 0.03333333
1.160284 101.471024 -1.031174 0.000000 0.000000 0.000000 -5.038685 -63.244205 -3.861036 -32.213696 10.200381 30.720354 39.909253 -6.364775 -8.321033 -5.977010 -3.462729 -7.806132 -1.018602 0.433669 0.045772 0.000000 0.000000 0.000000 -5.841495 -61.592412 -3.971003 -25.444744 -10.383304 -21.742229 38.645709 4.059015 -6.371787 -12.382135 3.561355 19.232175 0.649275 -0.011642 0.508934 0.000000 0.000000 0.000000 -5.003124 -61.086507 -3.495108 10.333705 2.245584 -1.113841 7.535800 0.386271 -5.117141 0.503805 -1.744220 1.121815 0.000000 0.000000 0.000000 7.937382 0.771474 -4.954052 -25.376473 23.229183 11.294857 -3.544100 26.377600 -3.143235 0.000000 0.000000 0.000000 9.047856 0.452705 -4.639422 -5.688418 -10.022998 -1.628817 -2.285380 -1.375314 -2.366537 -18.058668 3.610876 -34.931319 4.868520 -49.508715 2.798761 0.000000 0.000000 0.000000 8.471782 0.440706 -4.928520 -4.102259 11.789855 2.016070 1.833219 0.983209 0.864150 -38.833898 -25.176537 32.434403 -157.220067 65.003730 157.763313 0.000000 0.000000 0.000000 
1.096556 101.394348 -1.124847 0.000000 0.000000 0.000000 -4.715520 -63.128939 -3.148845 -31.947544 9.818279 30.024357 39.505049 -6.077533 -8.327832 -5.821109 -3.275267 -8.024659 -0.819741 0.434790 -0.018418 0.000000 0.000000 0.000000 -5.583439 -61.725676 -3.295223 -25.969942 -10.015966 -22.473028 38.988557 4.224651 -6.379744 -12.417542 3.993096 19.417284 0.610121 0.027731 0.530558 0.000000 0.000000 0.000000 -4.212779 -60.855647 -2.557884 10.203635 2.314751 -0.882289 8.024476 0.488307 -4.995554 0.465295 -1.702947 1.186726 0.000000 0.000000 0.000000 8.269726 0.904933 -4.886487 -23.399449 23.317598 11.679197 -2.769103 25.821921 -2.939948 0.000000 0.000000 0.000000 9.435894 0.501925 -4.540481 -5.818594 -10.623377 -2.372532 -2.142914 -1.146963 -2.369238 -16.564997 4.922147 -34.911658 5.242140 -49.867443 2.855705 0.000000 0.000000 0.000000 8.833206 0.559414 -4.740487 -4.173605 11.901859 2.676779 1.440967 0.828794 0.758012 -39.528091 -24.691492 31.045556 -157.428552 64.217630 158.230362 0.000000 0.000000 0.000000 
0.995524 101.527275 -1.146721 0.000000 0.000000 0.000000 -4.059700 -63.064646 -2.107333 -31.581173 9.433000 29.136166 38.795686 -5.839296 -8.214290 -5.529047 -3.179321 -8.457695 -0.613538 0.433843 -0.064500 0.000000 0.000000 0.000000 -5.104541 -61.794101 -2.380367 -26.315394 -9.818417 -23.106532 38.998871 4.237754 -6.309358 -12.353131 4.282745 19.585479 0.502896 0.052456 0.539670 0.000000 0.000000 0.000000 -3.341382 -60.567993 -1.518821 10.104648 2.323909 -0.794387 8.441622 0.550304 -4.875347 0.487981 -1.959089 1.231644 0.000000 0.000000 0.000000 8.626999 0.994138 -4.788652 -21.949904 23.433066 11.749354 -2.135539 25.066453 -2.939529 0.000000 0.000000 0.000000 9.785799 0.512070 -4.400156 -5.933141 -11.090696 -2.906024 -2.160532 -0.726612 -2.398785 -15.319853 5.679189 -35.002004 5.728944 -49.007656 3.037606 0.000000 0.000000 0.000000 9.083618 0.627905 -4.546010 -4.236842 11.591854 3.215933 0.921120 0.674594 0.858933 -40.045027 -23.472522 30.358589 -156.950234 64.266493 157.888155 0.000000 0.000000 0.000000 
0.893014 101.756889 -1.112179 0.000000 0.000000 0.000000 -3.361117 -62.971762 -1.058500 -31.246432 9.066457 28.216439 38.116468 -5.670024 -7.998799 -5.263056 -3.165704 -9.018058 -0.530457 0.432383 -0.065577 0.000000 0.000000 0.000000 -4.559605 -61.809742 -1.440358 -26.516464 -9.691980 -23.539340 38.940479 4.079432 -6.202789 -12.336831 4.369608 19.688527 0.390171 0.059909 0.534935 0.000000 0.000000 0.000000 -2.658578 -60.236292 -0.645926 10.091500 2.263260 -0.844441 8.781578 0.539226 -4.793113 0.592577 -2.342167 1.182459 0.000000 0.000000 0.000000 9.008325 1.006786 -4.718397 -21.125504 23.574630 11.604902 -1.590242 24.369531 -3.161947 0.000000 0.000000 0.000000 10.109214 0.452011 -4.273929 -6.010914 -11.418908 -3.212649 -2.246120 -0.242973 -2.547120 -14.611829 5.879721 -34.928829 6.024619 -47.253209 3.147954 0.000000 0.000000 0.000000 9.275705 0.605581 -4.403824 -4.279535 11.005021 3.553925 0.498544 0.556313 1.055629 -40.488815 -22.097638 30.382935 -156.659008 64.510823 157.606547 0.000000 0.000000 0.000000 
0.804599 101.945511 -1.022148 0.000000 0.000000 0.000000 -2.745956 -62.853764 -0.158116 -31.052526 8.759556 27.397171 37.735030 -5.514287 -7.758491 -5.152646 -3.198935 -9.546694 -0.609346 0.436134 -0.026826 0.000000 0.000000 0.000000 -4.019326 -61.700118 -0.602063 -26.589523 -9.566165 -23.781406 38.883840 3.798271 -6.109341 -12.419103 4.273039 19.764011 0.265022 0.057413 0.516695 0.000000 0.000000 0.000000 -2.310883 -59.938796 -0.059816 10.178728 2.138558 -1.005805 9.027612 0.449615 -4.780668 0.771497 -2.782478 1.118750 0.000000 0.000000 0.000000 9.390288 0.937784 -4.704981 -20.799659 23.727382 11.372770 -1.101820 23.879854 -3.541277 0.000000 0.000000 0.000000 10.409946 0.335713 -4.219322 -6.046513 -11.548551 -3.355883 -2.311724 0.135784 -2.681859 -14.402031 5.743277 -34.598415 5.924145 -45.187695 3.033479 0.000000 0.000000 0.000000 9.465253 0.494827 -4.370562 -4.310794 10.342216 3.680297 0.435017 0.591043 1.320611 -40.829385 -21.161000 31.047776 -157.106345 64.494867 157.936691 0.000000 0.000000 0.000000 
0.739692 102.035255 -0.882298 0.000000 0.000000 0.000000 -2.298880 -62.708766 0.524604 -31.068970 8.566642 26.762172 37.682253 -5.349526 -7.566892 -5.238703 -3.209743 -9.892208 -0.779194 0.449505 0.031496 0.000000 0.000000 0.000000 -3.497079 -61.485909 0.114170 -26.582914 -9.392241 -23.887588 38.843474 3.463597 -6.062405 -12.566227 4.048656 19.862735 0.166033 0.045590 0.484536 0.000000 0.000000 0.000000 -2.216848 -59.681845 0.315475 10.338353 1.978243 -1.230461 9.177595 0.313741 -4.845720 0.759902 -2.953386 1.095493 0.000000 0.000000 0.000000 9.713810 0.809334 -4.766632 -20.732191 23.851833 11.139527 -0.534427 23.593623 -3.948355 0.000000 0.000000 0.000000 10.670408 0.190917 -4.265985 -6.059388 -11.487484 -3.414573 -2.331246 0.440773 -2.947120 -14.530157 5.622714 -34.065131 5.385501 -43.297594 2.677343 0.000000 0.000000 0.000000 9.650963 0.325498 -4.459904 -4.339725 9.818735 3.658680 0.676649 0.555855 1.576405 -40.998924 -20.937397 32.180508 -158.249199 64.188376 158.862837 0.000000 0.000000 0.000000 
0.668209 102.016937 -0.701595 0.000000 0.000000 0.000000 -1.959242 -62.517883 1.063690 -31.217246 8.557803 26.360121 37.848356 -5.190507 -7.477750 -5.491748 -3.215066 -9.983731 -0.960638 0.463293 0.099169 0.000000 0.000000 0.000000 -3.022970 -61.300477 0.732907 -26.603722 -9.145412 -23.974154 38.814596 3.166418 -6.072480 -12.709219 3.773023 20.007880 0.142322 0.036141 0.446425 0.000000 0.000000 0.000000 -2.208362 -59.509253 0.623194 10.534866 1.817436 -1.482401 9.243572 0.170993 -4.967284 0.677165 -2.961366 1.088164 0.000000 0.000000 0.000000 9.942698 0.662260 -4.895292 -20.665065 23.929137 10.955705 0.088524 23.504896 -4.248075 0.000000 0.000000 0.000000 10.857178 0.054099 -4.401630 -6.052599 -11.341827 -3.419517 -2.265069 0.710551 -3.330021 -14.768609 5.734174 -33.454113 4.596022 -41.878274 2.191005 0.000000 0.000000 0.000000 9.830947 0.148066 -4.631515 -4.372726 9.593476 3.531045 1.124288 0.396953 1.779103 -41.031269 -21.359682 33.438858 -159.647476 63.746347 159.967347 0.000000 0.000000 0.000000 
0.599482 101.927246 -0.501087 0.000000 0.000000 0.000000 -1.588803 -62.344935 1.621863 -31.439187 8.709402 26.163023 38.101964 -5.060576 -7.501753 -5.789268 -3.224530 -9.832194 -1.053404 0.472994 0.155111 0.000000 0.000000 0.000000 -2.548272 -61.130152 1.329303 -26.706779 -8.872741 -24.158410 38.772098 2.942575 -6.115853 -12.804342 3.481989 20.199883 0.208658 0.033408 0.402392 0.000000 0.000000 0.000000 -2.101155 -59.411280 1.039137 10.737542 1.687349 -1.726334 9.256529 0.063410 -5.110340 0.577572 -2.860937 1.118137 0.000000 0.000000 0.000000 10.077148 0.540384 -5.040948 -20.487316 23.932909 10.835035 0.702395 23.527867 -4.397622 0.000000 0.000000 0.000000 10.971262 -0.043709 -4.584675 -6.039452 -11.196664 -3.346984 -2.156544 0.880632 -3.621992 -15.019736 6.155717 -33.024996 3.763083 -40.976692 1.708130 0.000000 0.000000 0.000000 9.983513 0.019157 -4.830976 -4.400859 9.735417 3.372822 1.550977 0.140725 1.972383 -40.828829 -22.111431 34.626621 -160.724200 63.478105 160.701866 0.000000 0.000000 0.000000 
0.522921 101.834885 -0.347271 0.000000 0.000000 0.000000 -1.189498 -62.186980 2.219801 -31.684527 8.950287 26.119212 38.264065 -5.035324 -7.603204 -6.036972 -3.275264 -9.580596 -1.064418 0.473322 0.206120 0.000000 0.000000 0.000000 -2.062526 -61.008670 1.953365 -26.906320 -8.641801 -24.463038 38.804012 2.769471 -6.157260 -12.859540 3.188286 20.381662 0.324739 0.039161 0.353466 0.000000 0.000000 0.000000 -1.735074 -59.331258 1.669010 10.925468 1.606590 -1.926555 9.262469 0.014335 -5.245796 0.469435 -2.741344 1.172126 0.000000 0.000000 0.000000 10.140205 0.477978 -5.191346 -20.163220 23.877172 10.758667 1.248311 23.563820 -4.393232 0.000000 0.000000 0.000000 11.005590 -0.084307 -4.777191 -6.034183 -11.145580 -3.171035 -1.984740 0.973401 -3.806020 -15.331020 6.729028 -32.939352 3.103033 -40.407720 1.371230 0.000000 0.000000 0.000000 10.086660 -0.025796 -5.009099 -4.407720 10.218398 3.238954 1.785415 -0.248223 2.086292 -40.455190 -22.800483 35.512889 -161.162056 63.448564 160.788787 0.000000 0.000000 0.000000 
0.417760 101.783379 -0.236080 0.000000 0.000000 0.000000 -0.714969 -62.032167 2.892134 -31.894330 9.176103 26.155168 38.274293 -5.149657 -7.730411 -6.176638 -3.404399 -9.372843 -1.067922 0.462214 0.254439 0.000000 0.000000 0.000000 -1.585716 -60.885303 2.617494 -27.176454 -8.514586 -24.852243 38.923496 2.607622 -6.172857 -12.916724 2.890082 20.514868 0.407673 0.054345 0.302917 0.000000 0.000000 0.000000 -1.111356 -59.239364 2.480919 11.080782 1.576718 -2.063152 9.289591 0.030960 -5.366058 0.523240 -2.725316 1.184261 0.000000 0.000000 0.000000 10.155906 0.482457 -5.332559 -19.764303 23.808248 10.701277 1.631490 23.517248 -4.301816 0.000000 0.000000 0.000000 10.987216 -0.060046 -4.953532 -6.030840 -11.211472 -2.890067 -1.878705 0.939119 -3.824102 -15.661193 7.240153 -33.276125 2.734393 -40.020998 1.244278 0.000000 0.000000 0.000000 10.147165 0.017816 -5.155830 -4.387983 10.918391 3.111352 1.851034 -0.447900 2.185502 -39.897987 -23.226864 36.005902 -161.028308 63.499927 160.330399 0.000000 0.000000 0.000000 
